<?xml version="1.0" encoding="UTF-8"?>
<!DOCTYPE svg PUBLIC "-//W3C//DTD SVG 1.1//EN" "http://www.w3.org/Graphics/SVG/1.1/DTD/svg11.dtd">
<svg xmlns:xlink="http://www.w3.org/1999/xlink" xmlns="http://www.w3.org/2000/svg" width="437" height="226" viewBox="24.5 -0.5 462 226">
  <g transform="translate(1,105)">
    <g transform="rotate(-90)">
      <text x="0" y="0" text-anchor="middle" dy="11" font-family="Helvetica" font-size="12" fill="#000000"></text>
    </g>
  </g>
  <clipPath id="clip1">
    <rect x="18.5" y="-0.5" width="73" height="219"/>
  </clipPath>
  <text x="90" y="200" text-anchor="end" dy="4" font-family="Helvetica" font-size="12" fill="#000000" clip-path="url(#clip1)">Others</text>
  <text x="90" y="181" text-anchor="end" dy="4" font-family="Helvetica" font-size="12" fill="#000000" clip-path="url(#clip1)">Korean</text>
  <text x="90" y="162" text-anchor="end" dy="4" font-family="Helvetica" font-size="12" fill="#000000" clip-path="url(#clip1)">Russian</text>
  <text x="90" y="143" text-anchor="end" dy="4" font-family="Helvetica" font-size="12" fill="#000000" clip-path="url(#clip1)">French</text>
  <text x="90" y="124" text-anchor="end" dy="4" font-family="Helvetica" font-size="12" fill="#000000" clip-path="url(#clip1)">Arabic</text>
  <text x="90" y="105" text-anchor="end" dy="4" font-family="Helvetica" font-size="12" fill="#000000" clip-path="url(#clip1)">German</text>
  <text x="90" y="86" text-anchor="end" dy="4" font-family="Helvetica" font-size="12" fill="#000000" clip-path="url(#clip1)">Portuguese</text>
  <text x="90" y="67" text-anchor="end" dy="4" font-family="Helvetica" font-size="12" fill="#000000" clip-path="url(#clip1)">Japanese</text>
  <text x="90" y="48" text-anchor="end" dy="4" font-family="Helvetica" font-size="12" fill="#000000" clip-path="url(#clip1)">Spanish</text>
  <text x="90" y="29" text-anchor="end" dy="4" font-family="Helvetica" font-size="12" fill="#000000" clip-path="url(#clip1)">Chinese</text>
  <text x="90" y="10" text-anchor="end" dy="4" font-family="Helvetica" font-size="12" fill="#000000" clip-path="url(#clip1)">English</text>
  <rect x="92" y="1" width="368" height="208" fill="#FFFFFF"/>
  <g>
    <clipPath id="clip2">
      <rect x="92.5" y="0.5" width="368" height="208"/>
    </clipPath>
    <g clip-path="url(#clip2)">
      <rect x="92" y="194.59" width="215.74" height="9.9" fill="#AAAAAA"/>
      <rect x="92" y="175.68" width="25.38" height="9.9" fill="#6282C8"/>
      <rect x="92" y="156.77" width="38.07" height="9.9" fill="#6282C8"/>
      <rect x="92" y="137.87" width="38.07" height="9.9" fill="#6282C8"/>
      <rect x="92" y="118.96" width="38.07" height="9.9" fill="#6282C8"/>
      <rect x="92" y="100.05" width="50.76" height="9.9" fill="#6282C8"/>
      <rect x="92" y="81.14" width="50.76" height="9.9" fill="#6282C8"/>
      <rect x="92" y="62.23" width="63.45" height="9.9" fill="#6282C8"/>
      <rect x="92" y="43.32" width="101.53" height="9.9" fill="#6282C8"/>
      <rect x="92" y="24.41" width="317.27" height="9.9" fill="#6282C8"/>
      <rect x="92" y="5.5" width="342.65" height="9.9" fill="#6282C8"/>
    </g>
  </g>
  <polyline fill="none" stroke="#7F7F7F" stroke-width="1" points="92,209,92,1"/>
  <polyline fill="none" stroke="#7F7F7F" stroke-width="1" points="460,209,92,209"/>
  <clipPath id="clip3">
    <rect x="81.5" y="208.5" width="379" height="20"/>
  </clipPath>
  <line x1="92" y1="209" x2="92" y2="215" stroke="#7F7F7F" stroke-width="1" clip-path="url(#clip3)"/>
  <line x1="155" y1="209" x2="155" y2="215" stroke="#7F7F7F" stroke-width="1" clip-path="url(#clip3)"/>
  <line x1="219" y1="209" x2="219" y2="215" stroke="#7F7F7F" stroke-width="1" clip-path="url(#clip3)"/>
  <line x1="282" y1="209" x2="282" y2="215" stroke="#7F7F7F" stroke-width="1" clip-path="url(#clip3)"/>
  <line x1="346" y1="209" x2="346" y2="215" stroke="#7F7F7F" stroke-width="1" clip-path="url(#clip3)"/>
  <line x1="409" y1="209" x2="409" y2="215" stroke="#7F7F7F" stroke-width="1" clip-path="url(#clip3)"/>
  <text x="92" y="216" text-anchor="middle" dy="11" font-family="Helvetica" font-size="12" fill="#000000" clip-path="url(#clip3)">0%</text>
  <text x="155" y="216" text-anchor="middle" dy="11" font-family="Helvetica" font-size="12" fill="#000000" clip-path="url(#clip3)">5%</text>
  <text x="219" y="216" text-anchor="middle" dy="11" font-family="Helvetica" font-size="12" fill="#000000" clip-path="url(#clip3)">10%</text>
  <text x="282" y="216" text-anchor="middle" dy="11" font-family="Helvetica" font-size="12" fill="#000000" clip-path="url(#clip3)">15%</text>
  <text x="346" y="216" text-anchor="middle" dy="11" font-family="Helvetica" font-size="12" fill="#000000" clip-path="url(#clip3)">20%</text>
  <text x="409" y="216" text-anchor="middle" dy="11" font-family="Helvetica" font-size="12" fill="#000000" clip-path="url(#clip3)">25%</text>
  <clipPath id="clip4">
    <rect x="272.5" y="227.5" width="16" height="16"/>
  </clipPath>
  <text x="276" y="240" text-anchor="start" dy="0" font-family="Helvetica" font-size="12" fill="#000000" clip-path="url(#clip4)"></text>
</svg>